<?xml version="1.0" encoding="UTF-8" standalone="no"?>
<!-- Created with Inkscape (http://www.inkscape.org/) -->

<svg
   xmlns:dc="http://purl.org/dc/elements/1.1/"
   xmlns:cc="http://creativecommons.org/ns#"
   xmlns:rdf="http://www.w3.org/1999/02/22-rdf-syntax-ns#"
   xmlns:svg="http://www.w3.org/2000/svg"
   xmlns="http://www.w3.org/2000/svg"
   xmlns:sodipodi="http://sodipodi.sourceforge.net/DTD/sodipodi-0.dtd"
   xmlns:inkscape="http://www.inkscape.org/namespaces/inkscape"
   width="64"
   height="64"
   viewBox="0 0 64.000001 64.000001"
   id="svg2"
   version="1.1"
   inkscape:version="0.91 r"
   sodipodi:docname="profile.svg">
  <defs
     id="defs4" />
  <sodipodi:namedview
     id="base"
     pagecolor="#ffffff"
     bordercolor="#666666"
     borderopacity="1.0"
     inkscape:pageopacity="0.0"
     inkscape:pageshadow="2"
     inkscape:zoom="3.8614659"
     inkscape:cx="0.44398401"
     inkscape:cy="5.7090706"
     inkscape:document-units="px"
     inkscape:current-layer="layer1"
     showgrid="false"
     inkscape:window-width="1388"
     inkscape:window-height="877"
     inkscape:window-x="52"
     inkscape:window-y="0"
     inkscape:window-maximized="1"
     units="px" />
  <metadata
     id="metadata7">
    <rdf:RDF>
      <cc:Work
         rdf:about="">
        <dc:format>image/svg+xml</dc:format>
        <dc:type
           rdf:resource="http://purl.org/dc/dcmitype/StillImage" />
        <dc:title></dc:title>
      </cc:Work>
    </rdf:RDF>
  </metadata>
  <g
     inkscape:label="Camada 1"
     inkscape:groupmode="layer"
     id="layer1"
     transform="translate(0,-988.36216)">
    <g
       id="g4211"
       transform="matrix(0.39719939,0,0,0.39719939,-71.598174,828.11796)"
       inkscape:export-xdpi="90"
       inkscape:export-ydpi="90">
      <g
         id="g4205">
        <circle
           style="opacity:1;fill:#677821;fill-opacity:1;stroke:none;stroke-width:2;stroke-linecap:round;stroke-miterlimit:4;stroke-dasharray:none;stroke-dashoffset:0;stroke-opacity:1"
           id="path3336"
           cx="-526.66785"
           cy="-157.81042"
           r="80.564072"
           transform="matrix(-0.70710678,-0.70710678,0.70710678,-0.70710678,0,0)" />
        <circle
           r="41.375755"
           cy="11.33903"
           cx="541.28339"
           id="circle4138"
           style="opacity:1;fill:#abc837;fill-opacity:1;stroke:none;stroke-width:2;stroke-linecap:round;stroke-miterlimit:4;stroke-dasharray:none;stroke-dashoffset:0;stroke-opacity:1"
           transform="matrix(0.5,0.8660254,-0.8660254,0.5,0,0)" />
        <path
           style="opacity:1;fill:#abc837;fill-opacity:1;stroke:none;stroke-width:2;stroke-linecap:round;stroke-miterlimit:4;stroke-dasharray:none;stroke-dashoffset:0;stroke-opacity:1"
           d="m 259.125,512.66992 a 72.005173,48.68742 0 0 0 -34.30273,6.50977 72.005173,48.68742 0 0 0 -25.42188,16.86523 80.564072,80.564072 0 0 0 4.45313,4.92188 80.564072,80.564072 0 0 0 54.25195,23.48828 101.80234,80.564072 0 0 0 2.05664,0.082 80.564072,80.564072 0 0 0 57.62695,-23.57031 80.564072,80.564072 0 0 0 4.47656,-4.92578 72.005173,48.68742 0 0 0 -63.14062,-23.3711 z"
           id="circle4189"
           inkscape:connector-curvature="0" />
        <path
           style="opacity:1;fill:#ffffff;fill-opacity:0.22916667;stroke:none;stroke-width:2;stroke-linecap:round;stroke-miterlimit:4;stroke-dasharray:none;stroke-dashoffset:0;stroke-opacity:1"
           d="M 317.95918,540.78494 A 80.564072,80.564072 0 0 0 317.78791,427.03189 80.564072,80.564072 0 0 0 204.03902,426.86477 L 317.95918,540.78494 Z"
           id="circle4197"
           inkscape:connector-curvature="0" />
      </g>
    </g>
  </g>
</svg>
